<svg xmlns="http://www.w3.org/2000/svg" xmlns:xlink="http://www.w3.org/1999/xlink" version="1.1" preserveAspectRatio="none" x="0px" y="0px" viewBox="0 0 100 125"><defs><g id="a"><path fill="#000000" stroke="none" d=" M 77.3 22.9 Q 65.9 11.5 50 11.5 33.95 11.5 22.75 22.9 11.5 34.15 11.5 50.05 11.5 66.1 22.75 77.3 33.95 88.55 50 88.55 65.9 88.55 77.3 77.3 88.55 66.1 88.55 50.05 88.55 34.15 77.3 22.9 M 49.85 45.7 L 60.8 34.95 Q 62.85 32.7 65.1 34.95 65.9 35.75 65.9 37.05 65.9 38.3 65.1 39.3 L 54.2 50.05 65.1 60.95 Q 65.9 61.75 65.9 63.05 65.9 64.3 65.1 65.1 64.15 66.1 62.85 66.1 61.6 66.1 60.8 65.1 L 49.85 54.35 39.1 65.1 Q 38.15 66.1 36.85 66.1 35.6 66.1 34.8 65.1 33.8 64.3 33.8 63.05 33.8 61.75 34.8 60.95 L 45.55 50.05 34.8 39.3 Q 33.8 38.3 33.8 37.05 33.8 35.75 34.8 34.95 36.85 32.7 39.1 34.95 L 49.85 45.7 Z"/></g></defs><g transform="matrix( 1, 0, 0, 1, 0,0) "><use xlink:href="#a"/></g></svg>